<svg xmlns="http://www.w3.org/2000/svg" viewBox="0 0 220 320" fill="none" stroke="currentColor" stroke-width="1.4" stroke-linecap="round" stroke-linejoin="round">
  <path d="M120 60 C100 40 95 15 115 6 C130 -1 150 8 150 28 C150 45 138 55 120 60 Z" />
  <path d="M120 60 C140 45 165 45 178 60 C188 72 182 92 165 95 C148 98 128 82 120 60 Z" />
  <path d="M120 60 C112 38 118 15 138 10 C152 7 165 20 160 38 C155 54 138 62 120 60 Z" />
  <path d="M120 60 C100 68 78 65 70 46 C64 32 76 16 92 20 C108 24 118 42 120 60 Z" />
  <path d="M120 60 C105 78 82 86 65 76 C53 69 53 50 68 43 C84 36 108 44 120 60 Z" />
  <circle cx="120" cy="60" r="9" />
  <path d="M118 66 C110 120 96 170 60 210" />
  <path d="M78 150 C60 148 44 158 40 176" />
  <path d="M78 150 C60 158 56 174 66 188" />
  <path d="M95 190 C78 190 64 200 62 216" />
  <path d="M95 190 C90 204 96 218 110 220" />
  <path d="M60 210 C46 226 40 248 46 268" />
</svg>
